<svg xmlns="http://www.w3.org/2000/svg" width="90px" height="90px" viewBox="0 0 100 135" class="svg_icon hopster_portrait "><path fill="#fff" d="M27.2,54.3c0.3,0.2,0.7,0.2,1,0l1.7-1.4c0.3-0.2,0.7-0.2,1,0l1.7,1.4c0.3,0.2,0.7,0.2,1,0l1.7-1.4 c0.3-0.2,0.7-0.2,1,0l1.7,1.4c0.3,0.2,0.7,0.2,1,0l1.8-1.5c0.1-0.1,0.4,0,0.4,0.2v43.6c0,0.1,0,0.2-0.2,0.2c-0.1,0.1-0.2,0-0.3-0.1 c-0.1-0.1-6.4-7.9-6.4-7.9c-0.3-0.4-0.4-0.8-0.4-1.2c0-0.5,0-15.3,0-16.8c0-0.7-0.5-1.1-1-1.1c-0.5,0-1,0.4-1,1.1c0,0,0,13.8,0,16.3 c0,0.8-0.5,1.6-1,1.8c0,0-5.2,2.9-5.3,3c-0.2,0.1-0.4,0-0.4-0.2L25,53c0-0.2,0.2-0.3,0.4-0.2L27.2,54.3z M25.8,94.3 c0,0.1,0,0.2,0.2,0.3c0.2,0.1,13.5,5.1,13.6,5.2s0.2,0,0.3-0.1c0.1-0.1,0.1-0.2,0-0.3c-0.1-0.2-5.7-7-6.2-7.7 c-0.6-0.7-1.6-1-2.4-0.6c-0.3,0.1-4.9,2.7-5.3,3C25.9,94.1,25.8,94.2,25.8,94.3z M53.2,28c0.3,0.4,0.6,0.7,1.1,0.6 c0.7-0.2,0.6-1.1,0.5-1.6c-0.1-1.9,0-6.8-2-14.2C49.4-0.4,46.7-0.4,45.1,0.2c-1.7,0.7-2.3,2.9,0.6,13C47.9,20.6,52.9,27.5,53.2,28z M65.8,43.4c-2.6,0.8-5,3.5-3.7,7.4c0.3,0.8-0.5,1.1-0.9,0.9l-1.6-1.6c-0.3-0.3-0.8-0.3-1.1,0l-1.6,1.6c-0.3,0.3-0.8,0.3-1.1,0 l-1.6-1.6c-0.3-0.3-0.8-0.3-1.1,0l-1.6,1.6c-0.3,0.3-0.8,0.3-1.1,0l-1.6-1.6c-0.3-0.3-0.8-0.3-1.1,0l-1.6,1.6c-0.3,0.3-0.7,0.3-1,0 l-2.5-2.1c-0.4-0.3-0.9-0.3-1.3,0c-0.7,0.6-1.8,1.6-2.3,2.1c-0.6,0.5-1.6-0.3-0.9-1.1c2.6-3.3,8.9-6,10.3-7.4 c0.8-0.9,1.6-2.5,1.1-4.3c-0.2-0.8-0.9-2.2-2.4-3.1c-4.2-2.5-8.5-5-13.8-10.6c-2.8-2.9-6-7.7-6.8-9.6c-0.7-1.8-0.4-3.8,0.5-4.9 c1.6-1.9,3.9-1.6,6.2-0.4c2.5,1.3,4.7,3,8.4,7.7c2.7,3.4,5.3,8.9,8,12.3c1,1.2,2,1.6,2.9,1.2c2.3-1.2,8.6-3.7,14.8,2.2 C71.4,37.6,68.7,42.5,65.8,43.4z M58.6,35.2c0-0.9-0.7-1.6-1.5-1.6s-1.5,0.7-1.5,1.6c0,0.9,0.7,1.6,1.5,1.6S58.6,36.1,58.6,35.2z M75,92.4c0,1.3-1.1,1.9-1.8,2.1c-0.7,0.1-26.7,5.3-27.8,5.5c-1.2,0.2-2.3-0.6-2.3-2.1c0-1.3,0-40,0-44.9c0-0.2,0.2-0.3,0.4-0.2 l1.8,1.5c0.3,0.2,0.7,0.2,1,0l1.7-1.4c0.3-0.2,0.7-0.2,1,0l1.7,1.4c0.3,0.2,0.7,0.2,1,0l1.7-1.4c0.3-0.2,0.7-0.2,1,0l1.7,1.4 c0.3,0.2,0.7,0.2,1,0l1.7-1.4c0.3-0.2,0.7-0.2,1,0l1.7,1.4c0.3,0.2,0.7,0.2,1,0l1.7-1.4c0.3-0.2,0.7-0.2,1,0l1.7,1.4 c0.3,0.2,0.7,0.2,1,0l1.7-1.4c0.3-0.2,0.7-0.2,1,0l1.7,1.4c0.3,0.2,0.7,0.2,1,0l1.8-1.5c0.1-0.1,0.4,0,0.4,0.2L75,92.4z M68.4,82.4 c0-0.3-0.3-0.6-0.6-0.6c-0.7,0.1-1.2-0.5-1.2-1.2v-5.6c0-4.2-1.9-5.9-5.3-5.5c-2.6,0.3-4.5,2.1-5.2,3.7l-0.1,0c0,0,0.1-0.6,0.1-1.4 v-5.6c0-1.4-0.6-2-2-1.9l-3,0.3c-0.3,0-0.6,0.3-0.6,0.7v2.1c0,0.3,0.3,0.6,0.6,0.6l0.6-0.1c0.4,0,0.6,0.1,0.6,0.6v17.5 c0,0.3,0.3,0.6,0.6,0.6l2.6-0.3c0.3,0,0.6-0.3,0.6-0.7v-6.7c0-0.8,0.1-1.4,0.2-2.1c0.6-2,2.1-3.6,4.1-3.8c1.9-0.2,2.4,1.1,2.4,3v7.3 c0,1.5,0.6,2.1,2,1.9l3-0.3c0.3,0,0.6-0.3,0.6-0.7V82.4z M1.7,129c0,0.3,0.3,0.5,0.6,0.5h2.4c0.3,0,0.6-0.2,0.6-0.5l0-5.9 c0-0.7,0.1-1.3,0.2-1.8c0.5-1.7,2-2.9,3.9-2.9c1.8,0,2.3,1.2,2.3,2.9l0,6.4c0,1.3,0.6,1.9,1.9,1.9h2.8c0.3,0,0.6-0.2,0.6-0.5l0-1.8 c0-0.3-0.3-0.5-0.6-0.5l0,0c-0.6,0-1.2-0.5-1.2-1.2l0-4.9c0-3.7-1.8-5.3-5-5.3c-2.5,0-4.2,1.4-4.9,2.8H5.2c0,0,0.1-0.5,0.1-1.2 l0-4.9c0-1.3-0.6-1.8-1.9-1.8H0.6c-0.3,0-0.6,0.2-0.6,0.5l0,1.9c0,0.3,0.3,0.5,0.6,0.5h0.6c0.4,0,0.6,0.2,0.6,0.6L1.7,129z M50.7,122.5c0,4.5-2.8,7.3-6.6,7.3c-2.8,0-4.1-1.8-4.1-1.8H40c0,0,0.1,0.5,0.1,1.2v5.2c0,0.3-0.3,0.5-0.6,0.5h-2.4 c-0.3,0-0.6-0.2-0.6-0.5v-15.4c0-0.4-0.2-0.6-0.6-0.6h-0.6c-0.3,0-0.6-0.2-0.6-0.5V116c0-0.3,0.3-0.5,0.6-0.5h2.6 c1.3,0,1.8,0.6,1.8,1.3c0,0.3,0,0.5,0,0.5h0.1c0,0,1.2-2.2,4.5-2.2C48.2,115.2,50.7,118.2,50.7,122.5z M47.1,122.6 c0-2.7-1.5-4.4-3.6-4.4c-1.8,0-3.6,1.3-3.6,4.4c0,2.2,1.2,4.3,3.5,4.3C45.4,126.9,47.1,125.3,47.1,122.6z M52.9,127 c-0.2,0.2-0.1,0.5,0.1,0.7c0.7,0.7,2.6,2.2,5.6,2.2c3.1,0,5.5-1.6,5.5-4.3c0-4.7-7.6-4.2-7.6-6.4c0-0.8,0.9-1.3,2.1-1.3 c0.8,0,1.8,0.3,1.8,1v0.1c0,0.3,0.3,0.5,0.6,0.5l2,0c0.3,0,0.6-0.2,0.6-0.5v-0.9c0-2.3-3.1-2.9-5-2.9c-3,0-5.5,1.3-5.5,4.1 c0,4.5,7.5,4.5,7.5,6.5c0,0.9-0.8,1.4-1.9,1.4c-1.7,0-3.1-1-3.8-1.6c-0.3-0.2-0.6-0.2-0.8,0.1L52.9,127z M66.2,118.3l0,6.1 c0,4.7,3.9,5.3,5.9,5.3c0.2,0,0.4,0,0.6,0c0.3,0,0.5-0.3,0.5-0.5l0-2c0-0.3-0.3-0.6-0.6-0.5c0,0-0.1,0-0.1,0c-1,0-2.8-0.3-2.8-2.6 l0-5.1c0-0.3,0.3-0.5,0.6-0.5l2.1,0c0.3,0,0.6-0.2,0.6-0.5l0-1.7c0-0.3-0.3-0.5-0.6-0.5h-2.1c-0.3,0-0.6-0.2-0.6-0.5v-2.7 c0-0.3-0.3-0.5-0.6-0.5h-2.4c-0.3,0-0.6,0.2-0.6,0.5v3.3V118.3z M88.2,121.9c0,0.2,0,0.5,0,0.8c0,0.3-0.3,0.5-0.6,0.5h-8.7 c-0.4,0-0.6,0.3-0.5,0.7c0.5,2,2.2,3.1,4.2,3.1c1.6,0,2.9-0.7,3.5-1.2c0.3-0.2,0.6-0.1,0.8,0.2l0.9,1.5c0.1,0.2,0.1,0.6-0.1,0.7 c-0.8,0.6-2.7,1.8-5.4,1.8c-4.7,0-7.7-3.4-7.7-7.3c0-4.3,3-7.3,7.3-7.3C85.9,115.2,88.2,118.2,88.2,121.9z M84.4,120.1 c-0.3-1.3-1.3-2.2-2.6-2.2c-1.5,0-2.7,0.8-3.3,2.1c-0.2,0.4,0.1,0.8,0.5,0.8h4.8C84.3,120.8,84.5,120.5,84.4,120.1z M91.4,129 c0,0.3,0.3,0.5,0.6,0.5h2.4c0.3,0,0.6-0.2,0.6-0.5v-5c0-0.8,0.1-1.6,0.3-2.3c0.6-2.1,2.4-2.9,3.9-2.9c0.1,0,0.2,0,0.3,0 c0.3,0,0.6-0.2,0.6-0.5v-2.3c0-0.3-0.2-0.5-0.5-0.5c0,0-0.1,0-0.1,0c-2.2,0-3.9,1.6-4.5,3.6h-0.1c0,0,0.1-0.4,0.1-0.9v-0.8 c0-1.2-0.6-1.7-1.9-1.7h-2.7c-0.3,0-0.6,0.2-0.6,0.5v1.9c0,0.3,0.3,0.5,0.6,0.5h0.6c0.4,0,0.6,0.2,0.6,0.6L91.4,129z M33.6,122.5 c0,4.3-3.5,7.3-7.8,7.3c-4.3,0-7.8-3-7.8-7.3c0-4.3,3.5-7.3,7.8-7.3C30.1,115.2,33.6,118.2,33.6,122.5z M30,122.5 c0-2.6-1.9-4.4-4.3-4.4c-2.3,0-4.2,1.8-4.2,4.4c0,2.6,1.9,4.4,4.2,4.4C28.1,126.9,30,125.1,30,122.5z"></path></svg>